<svg width="181" height="53" viewBox="0 0 181 53" fill="none" xmlns="http://www.w3.org/2000/svg">
<path d="M3.04 15.44H16.68C19.8267 15.44 22.1867 16.12 23.76 17.48C25.3333 18.84 26.12 20.7333 26.12 23.16C26.12 24.52 25.92 25.6533 25.52 26.56C25.12 27.44 24.6533 28.16 24.12 28.72C23.5867 29.2533 23.0533 29.64 22.52 29.88C22.0133 30.12 21.64 30.28 21.4 30.36V30.44C21.8267 30.4933 22.28 30.6267 22.76 30.84C23.2667 31.0533 23.7333 31.4 24.16 31.88C24.5867 32.3333 24.9333 32.9333 25.2 33.68C25.4933 34.4267 25.64 35.36 25.64 36.48C25.64 38.16 25.76 39.6933 26 41.08C26.2667 42.44 26.6667 43.4133 27.2 44H21.84C21.4667 43.3867 21.24 42.7067 21.16 41.96C21.1067 41.2133 21.08 40.4933 21.08 39.8C21.08 38.4933 21 37.3733 20.84 36.44C20.68 35.48 20.3867 34.6933 19.96 34.08C19.5333 33.44 18.9467 32.9733 18.2 32.68C17.48 32.3867 16.5467 32.24 15.4 32.24H8.04V44H3.04V15.44ZM8.04 28.44H16.24C17.84 28.44 19.0533 28.0667 19.88 27.32C20.7067 26.5467 21.12 25.4 21.12 23.88C21.12 22.9733 20.9867 22.24 20.72 21.68C20.4533 21.0933 20.08 20.64 19.6 20.32C19.1467 20 18.6133 19.7867 18 19.68C17.4133 19.5733 16.8 19.52 16.16 19.52H8.04V28.44ZM30.5641 15.44H35.1241V26.04H35.2041C35.7641 25.1067 36.5907 24.3333 37.6841 23.72C38.8041 23.08 40.0441 22.76 41.4041 22.76C43.6707 22.76 45.4574 23.3467 46.7641 24.52C48.0707 25.6933 48.7241 27.4533 48.7241 29.8V44H44.1641V31C44.1107 29.3733 43.7641 28.2 43.1241 27.48C42.4841 26.7333 41.4841 26.36 40.1241 26.36C39.3507 26.36 38.6574 26.5067 38.0441 26.8C37.4307 27.0667 36.9107 27.4533 36.4841 27.96C36.0574 28.44 35.7241 29.0133 35.4841 29.68C35.2441 30.3467 35.1241 31.0533 35.1241 31.8V44H30.5641V15.44ZM53.6528 15.44H58.2128V19.76H53.6528V15.44ZM53.6528 23.32H58.2128V44H53.6528V23.32ZM63.1813 23.32H67.5013V26.36L67.5813 26.44C68.2746 25.2933 69.1813 24.4 70.3013 23.76C71.4213 23.0933 72.6613 22.76 74.0213 22.76C76.2879 22.76 78.0746 23.3467 79.3813 24.52C80.6879 25.6933 81.3412 27.4533 81.3412 29.8V44H76.7813V31C76.7279 29.3733 76.3813 28.2 75.7413 27.48C75.1013 26.7333 74.1013 26.36 72.7413 26.36C71.9679 26.36 71.2746 26.5067 70.6613 26.8C70.0479 27.0667 69.5279 27.4533 69.1013 27.96C68.6746 28.44 68.3413 29.0133 68.1013 29.68C67.8613 30.3467 67.7413 31.0533 67.7413 31.8V44H63.1813V23.32ZM95.63 44.56C93.9767 44.56 92.4967 44.2933 91.19 43.76C89.91 43.2 88.8167 42.44 87.91 41.48C87.03 40.52 86.35 39.3733 85.87 38.04C85.4167 36.7067 85.19 35.24 85.19 33.64C85.19 32.0667 85.4167 30.6133 85.87 29.28C86.35 27.9467 87.03 26.8 87.91 25.84C88.8167 24.88 89.91 24.1333 91.19 23.6C92.4967 23.04 93.9767 22.76 95.63 22.76C97.2833 22.76 98.75 23.04 100.03 23.6C101.337 24.1333 102.43 24.88 103.31 25.84C104.217 26.8 104.897 27.9467 105.35 29.28C105.83 30.6133 106.07 32.0667 106.07 33.64C106.07 35.24 105.83 36.7067 105.35 38.04C104.897 39.3733 104.217 40.52 103.31 41.48C102.43 42.44 101.337 43.2 100.03 43.76C98.75 44.2933 97.2833 44.56 95.63 44.56ZM95.63 40.96C96.6433 40.96 97.5233 40.7467 98.27 40.32C99.0167 39.8933 99.63 39.3333 100.11 38.64C100.59 37.9467 100.937 37.1733 101.15 36.32C101.39 35.44 101.51 34.5467 101.51 33.64C101.51 32.76 101.39 31.88 101.15 31C100.937 30.12 100.59 29.3467 100.11 28.68C99.63 27.9867 99.0167 27.4267 98.27 27C97.5233 26.5733 96.6433 26.36 95.63 26.36C94.6167 26.36 93.7367 26.5733 92.99 27C92.2433 27.4267 91.63 27.9867 91.15 28.68C90.67 29.3467 90.31 30.12 90.07 31C89.8567 31.88 89.75 32.76 89.75 33.64C89.75 34.5467 89.8567 35.44 90.07 36.32C90.31 37.1733 90.67 37.9467 91.15 38.64C91.63 39.3333 92.2433 39.8933 92.99 40.32C93.7367 40.7467 94.6167 40.96 95.63 40.96ZM107.821 23.32H112.781L118.021 39.2H118.101L123.141 23.32H127.861L120.461 44H115.341L107.821 23.32ZM130.723 15.44H135.283V19.76H130.723V15.44ZM130.723 23.32H135.283V44H130.723V23.32ZM140.252 23.32H144.572V26.36L144.652 26.44C145.345 25.2933 146.252 24.4 147.372 23.76C148.492 23.0933 149.732 22.76 151.092 22.76C153.358 22.76 155.145 23.3467 156.452 24.52C157.758 25.6933 158.412 27.4533 158.412 29.8V44H153.852V31C153.798 29.3733 153.452 28.2 152.812 27.48C152.172 26.7333 151.172 26.36 149.812 26.36C149.038 26.36 148.345 26.5067 147.732 26.8C147.118 27.0667 146.598 27.4533 146.172 27.96C145.745 28.44 145.412 29.0133 145.172 29.68C144.932 30.3467 144.812 31.0533 144.812 31.8V44H140.252V23.32Z" fill="#E7E1D7"/>
<path d="M175.16 17.16C175.064 17.736 174.88 18.256 174.608 18.72C174.352 19.168 174.04 19.552 173.672 19.872C173.304 20.192 172.88 20.44 172.4 20.616C171.936 20.776 171.44 20.856 170.912 20.856C170.144 20.856 169.448 20.72 168.824 20.448C168.2 20.176 167.664 19.8 167.216 19.32C166.768 18.824 166.424 18.248 166.184 17.592C165.944 16.92 165.824 16.2 165.824 15.432C165.824 14.712 165.936 14.04 166.16 13.416C166.4 12.776 166.736 12.232 167.168 11.784C167.6 11.32 168.128 10.952 168.752 10.68C169.376 10.408 170.08 10.272 170.864 10.272C171.968 10.272 172.912 10.584 173.696 11.208C174.496 11.816 174.976 12.712 175.136 13.896H173.504C173.376 13.288 173.072 12.792 172.592 12.408C172.128 12.024 171.552 11.832 170.864 11.832C170.352 11.832 169.904 11.928 169.52 12.12C169.136 12.312 168.808 12.568 168.536 12.888C168.28 13.208 168.08 13.592 167.936 14.04C167.808 14.472 167.744 14.936 167.744 15.432C167.744 15.96 167.816 16.456 167.96 16.92C168.104 17.384 168.312 17.792 168.584 18.144C168.872 18.496 169.208 18.776 169.592 18.984C169.992 19.192 170.432 19.296 170.912 19.296C171.632 19.296 172.224 19.096 172.688 18.696C173.152 18.296 173.424 17.784 173.504 17.16H175.16ZM177.488 15.432C177.488 14.344 177.312 13.344 176.96 12.432C176.608 11.52 176.12 10.736 175.496 10.08C174.872 9.424 174.144 8.92 173.312 8.568C172.48 8.2 171.584 8.016 170.624 8.016C169.648 8.016 168.736 8.2 167.888 8.568C167.056 8.92 166.328 9.424 165.704 10.08C165.08 10.736 164.592 11.52 164.24 12.432C163.888 13.344 163.712 14.344 163.712 15.432C163.712 16.456 163.872 17.416 164.192 18.312C164.512 19.208 164.968 19.992 165.56 20.664C166.168 21.336 166.896 21.872 167.744 22.272C168.592 22.656 169.552 22.848 170.624 22.848C171.584 22.848 172.48 22.672 173.312 22.32C174.144 21.952 174.872 21.44 175.496 20.784C176.12 20.128 176.608 19.352 176.96 18.456C177.312 17.544 177.488 16.536 177.488 15.432ZM179.408 15.432C179.408 16.776 179.168 18 178.688 19.104C178.224 20.208 177.584 21.152 176.768 21.936C175.968 22.72 175.032 23.328 173.96 23.76C172.904 24.192 171.792 24.408 170.624 24.408C169.328 24.408 168.136 24.184 167.048 23.736C165.976 23.272 165.048 22.64 164.264 21.84C163.496 21.04 162.888 20.096 162.44 19.008C162.008 17.904 161.792 16.712 161.792 15.432C161.792 14.088 162.024 12.864 162.488 11.76C162.968 10.656 163.608 9.712 164.408 8.928C165.224 8.144 166.168 7.536 167.24 7.104C168.312 6.672 169.44 6.456 170.624 6.456C171.792 6.456 172.904 6.672 173.96 7.104C175.032 7.536 175.968 8.144 176.768 8.928C177.584 9.712 178.224 10.656 178.688 11.76C179.168 12.864 179.408 14.088 179.408 15.432Z" fill="#E7E1D7"/>
</svg>
